<?xml version="1.0" standalone="no"?>
<!DOCTYPE svg PUBLIC "-//W3C//DTD SVG 20010904//EN"
 "http://www.w3.org/TR/2001/REC-SVG-20010904/DTD/svg10.dtd">
<svg version="1.0" xmlns="http://www.w3.org/2000/svg"
 width="512.000000pt" height="512.000000pt" viewBox="0 0 512.000000 512.000000"
 preserveAspectRatio="xMidYMid meet">
<metadata>
Created by potrace 1.11, written by Peter Selinger 2001-2013
</metadata>
<g transform="translate(0.000000,512.000000) scale(0.100000,-0.100000)"
fill="#000000" stroke="none">
<path d="M160 4080 l0 -80 440 0 440 0 0 80 0 80 -440 0 -440 0 0 -80z"/>
<path d="M400 3760 l0 -80 760 0 760 0 0 80 0 80 -760 0 -760 0 0 -80z"/>
<path d="M240 2240 l0 -1200 -40 0 -40 0 0 -80 0 -80 2400 0 2400 0 0 80 0 80
-466 2 -466 3 39 29 c66 50 129 146 153 236 16 60 18 70 19 102 l1 28 161 2
161 3 139 275 c76 151 148 302 158 335 18 54 20 86 18 305 -2 242 -2 246 -29
308 -15 35 -43 85 -62 111 -38 51 -43 55 -411 356 -132 108 -249 204 -260 213
-11 9 -41 34 -66 55 l-46 37 -1882 0 -1881 0 0 -1200z m1761 -822 c2 -70 21
-133 61 -208 32 -60 54 -88 111 -137 l38 -33 -850 0 -850 0 59 55 c61 59 110
140 130 215 17 61 18 71 19 103 l1 27 640 0 640 0 1 -22z m1280 5 c1 -10 1
-22 0 -26 -4 -22 32 -136 60 -186 32 -59 64 -99 118 -143 l33 -28 -372 0 -372
0 34 28 c104 86 172 221 177 350 1 22 2 22 161 22 145 0 160 -2 161 -17z"/>
</g>
</svg>
